<?xml version="1.0" standalone="no"?>
<!DOCTYPE svg PUBLIC "-//W3C//DTD SVG 20010904//EN"
 "http://www.w3.org/TR/2001/REC-SVG-20010904/DTD/svg10.dtd">
<svg version="1.0" xmlns="http://www.w3.org/2000/svg"
 width="1024" height="1024" viewBox="105 175 210 210"
 preserveAspectRatio="xMidYMid meet">

<g transform="translate(0.000000,594.000000) scale(0.100000,-0.100000)"
fill="#245C66" stroke="none">
<path d="M2070 3832 c-32 -59 -102 -127 -161 -156 -25 -13 -92 -38 -148 -56
-128 -42 -183 -85 -206 -163 -8 -28 -15 -65 -15 -82 0 -28 -6 -34 -47 -54 -62
-28 -107 -84 -138 -166 -32 -83 -31 -127 0 -212 30 -80 77 -134 138 -161 43
-19 44 -21 51 -77 3 -31 15 -74 26 -95 22 -43 99 -107 139 -116 185 -40 293
-104 353 -211 17 -29 33 -53 36 -53 4 0 18 20 31 45 28 53 102 125 157 153 22
11 85 34 141 51 161 50 215 104 229 226 7 55 8 57 54 80 60 30 103 85 135 169
30 81 31 105 4 187 -26 81 -75 144 -139 181 -44 25 -50 33 -50 61 -1 44 -22
100 -54 141 -28 37 -114 83 -207 109 -30 9 -75 25 -100 36 -53 24 -149 115
-173 164 -9 20 -20 38 -24 41 -4 2 -19 -16 -32 -42z m76 -92 c27 -33 53 -60
57 -60 5 0 28 -13 52 -30 23 -16 77 -39 119 -50 189 -52 246 -101 246 -214 0
-70 7 -86 35 -86 34 0 105 -58 137 -113 44 -75 53 -125 34 -190 -30 -102 -99
-177 -185 -200 -19 -5 -21 -12 -21 -74 0 -120 -48 -162 -262 -227 -92 -28
-150 -66 -222 -146 -21 -23 -41 -38 -45 -33 -3 6 -22 28 -41 49 -62 68 -120
103 -225 135 -186 58 -245 104 -245 191 0 71 -10 108 -29 108 -33 0 -107 57
-138 106 -44 69 -57 124 -43 187 22 104 111 207 179 207 17 0 20 9 26 68 4 37
9 75 11 84 16 56 103 110 237 147 49 13 100 36 135 60 56 38 132 114 132 132
0 15 5 11 56 -51z"/>
<path d="M1653 3145 c-43 -18 -42 -31 5 -52 20 -10 48 -25 62 -34 14 -9 82
-45 151 -81 69 -36 142 -78 163 -92 52 -35 78 -33 152 14 35 22 66 40 69 40 3
0 56 28 117 61 62 34 134 72 161 85 26 13 47 29 47 35 0 5 -16 17 -36 25 -34
14 -38 14 -82 -12 -26 -15 -69 -39 -97 -53 -27 -15 -69 -39 -92 -54 -24 -15
-46 -27 -51 -27 -5 0 -34 -18 -66 -40 l-56 -40 -48 33 c-26 19 -72 47 -102 62
-73 38 -136 73 -202 113 -31 17 -57 32 -59 32 -2 -1 -19 -7 -36 -15z"/>
<path d="M1586 3085 c-8 -22 126 -117 189 -133 28 -7 75 -28 105 -46 30 -18
77 -44 103 -57 73 -35 77 -45 26 -69 -24 -11 -71 -36 -104 -55 l-60 -35 40 0
c29 0 63 13 128 49 l87 49 88 -49 c64 -36 97 -49 127 -49 l40 0 -65 36 c-36
20 -82 45 -104 56 -46 23 -41 31 44 76 103 54 345 185 368 199 18 11 21 17 12
28 -13 16 -37 8 -105 -34 -22 -13 -69 -40 -105 -58 -36 -18 -87 -46 -115 -61
-132 -74 -169 -92 -185 -92 -9 0 -39 12 -66 26 -27 15 -76 41 -109 59 -111 59
-200 108 -235 129 -32 20 -86 46 -94 46 -2 0 -6 -7 -10 -15z"/>
</g>
</svg>
