<?xml version="1.0" standalone="no"?>
<!DOCTYPE svg PUBLIC "-//W3C//DTD SVG 20010904//EN"
 "http://www.w3.org/TR/2001/REC-SVG-20010904/DTD/svg10.dtd">
<svg version="1.0" xmlns="http://www.w3.org/2000/svg"
 width="480.000000pt" height="480.000000pt" viewBox="0 0 480.000000 480.000000"
 preserveAspectRatio="xMidYMid meet">

<g transform="translate(0.000000,480.000000) scale(0.100000,-0.100000)"
fill="#000000" stroke="none">
<path d="M2098 3720 c-129 -23 -261 -78 -329 -138 -48 -43 -48 -65 -2 -83 83
-32 358 53 451 139 30 28 42 65 25 75 -18 11 -101 15 -145 7z"/>
<path d="M2565 3626 c-49 -12 -155 -45 -235 -73 -80 -28 -235 -71 -345 -97
-390 -92 -508 -134 -622 -220 -69 -53 -115 -109 -139 -173 -15 -40 -15 -44 0
-68 23 -35 82 -34 161 4 75 36 126 73 218 160 128 120 219 191 299 231 220
110 434 90 751 -71 194 -97 253 -122 365 -150 180 -45 302 7 302 127 0 82
-112 215 -235 281 -144 76 -339 95 -520 49z"/>
<path d="M2130 3340 c-156 -22 -290 -97 -378 -213 -56 -75 -72 -110 -72 -161
0 -36 6 -52 30 -80 44 -50 86 -61 225 -60 135 0 182 11 424 95 271 93 437 124
625 117 92 -3 120 -8 166 -30 79 -36 146 -95 255 -224 105 -125 166 -173 226
-181 135 -19 113 195 -38 357 -95 103 -141 117 -314 94 -198 -25 -265 -10
-542 128 -87 43 -185 89 -218 103 -117 50 -269 71 -389 55z"/>
<path d="M2811 2904 c-122 -18 -233 -50 -463 -135 -254 -93 -315 -109 -438
-116 -125 -7 -178 5 -332 70 -123 53 -203 71 -267 62 -136 -20 -246 -125 -257
-247 -6 -64 13 -107 69 -152 34 -27 48 -31 112 -34 66 -4 82 -1 139 26 35 16
104 57 152 90 175 119 294 157 484 156 200 -1 334 -45 575 -189 181 -108 239
-128 370 -129 91 0 105 3 158 29 112 56 170 149 171 275 0 164 -98 271 -274
299 -77 13 -78 13 -199 -5z"/>
<path d="M1747 2496 c-177 -50 -273 -251 -199 -418 63 -144 212 -206 432 -179
128 15 255 52 480 139 227 87 292 107 397 122 104 15 195 1 313 -47 181 -75
213 -85 282 -85 106 -1 194 46 254 136 67 102 52 214 -37 273 -35 23 -53 28
-103 28 -92 -1 -130 -16 -282 -117 -184 -121 -262 -150 -429 -156 -213 -8
-370 39 -598 176 -78 47 -173 96 -212 110 -86 30 -225 39 -298 18z"/>
<path d="M1109 2181 c-30 -31 -31 -35 -26 -91 7 -76 61 -181 132 -253 92 -93
147 -108 329 -87 193 21 289 -4 601 -155 83 -41 191 -86 240 -101 80 -25 106
-28 225 -28 123 0 141 2 203 27 275 108 413 372 244 465 -26 14 -57 17 -162
16 -147 0 -165 -4 -441 -94 -232 -76 -386 -110 -539 -117 -148 -7 -208 5 -296
58 -84 50 -125 89 -226 214 -84 103 -154 158 -220 171 -27 5 -37 1 -64 -25z"/>
<path d="M3465 1822 c-70 -24 -153 -84 -275 -197 -231 -214 -354 -275 -552
-275 -163 0 -259 30 -513 158 -201 101 -287 130 -421 139 -81 5 -97 3 -136
-15 -53 -26 -78 -66 -78 -125 0 -89 115 -217 257 -287 89 -43 181 -63 298 -63
125 -1 170 9 430 93 116 37 235 73 265 80 459 101 618 159 745 273 91 81 131
188 83 221 -28 20 -41 20 -103 -2z"/>
<path d="M2862 1291 c-137 -34 -296 -130 -290 -175 5 -37 64 -44 184 -19 188
38 366 148 323 199 -16 20 -125 17 -217 -5z"/>
</g>
</svg>
